<mxfile host="Electron" modified="2023-12-07T13:04:18.992Z" agent="Mozilla/5.0 (Macintosh; Intel Mac OS X 10_15_7) AppleWebKit/537.36 (KHTML, like Gecko) draw.io/22.1.2 Chrome/114.0.5735.289 Electron/25.9.4 Safari/537.36" etag="rxlIWvPjmcQVatCb9gbI" version="22.1.2" type="device">
  <diagram name="Page-1" id="Afua1EUWW_mWACLbdl3M">
    <mxGraphModel dx="1114" dy="821" grid="1" gridSize="10" guides="1" tooltips="1" connect="1" arrows="1" fold="1" page="1" pageScale="1" pageWidth="850" pageHeight="1100" math="0" shadow="0">
      <root>
        <mxCell id="0" />
        <mxCell id="1" parent="0" />
        <mxCell id="eXpazlzF4Z40hMdaCm9o-8" style="rounded=0;orthogonalLoop=1;jettySize=auto;html=1;exitX=1;exitY=0.5;exitDx=0;exitDy=0;exitPerimeter=0;" parent="1" source="eXpazlzF4Z40hMdaCm9o-1" target="eXpazlzF4Z40hMdaCm9o-4" edge="1">
          <mxGeometry relative="1" as="geometry" />
        </mxCell>
        <mxCell id="eXpazlzF4Z40hMdaCm9o-9" style="rounded=0;orthogonalLoop=1;jettySize=auto;html=1;exitX=1;exitY=0.5;exitDx=0;exitDy=0;exitPerimeter=0;" parent="1" source="eXpazlzF4Z40hMdaCm9o-1" target="eXpazlzF4Z40hMdaCm9o-5" edge="1">
          <mxGeometry relative="1" as="geometry" />
        </mxCell>
        <mxCell id="eXpazlzF4Z40hMdaCm9o-1" value="Load Balancer" style="sketch=0;points=[[0.015,0.015,0],[0.985,0.015,0],[0.985,0.985,0],[0.015,0.985,0],[0.25,0,0],[0.5,0,0],[0.75,0,0],[1,0.25,0],[1,0.5,0],[1,0.75,0],[0.75,1,0],[0.5,1,0],[0.25,1,0],[0,0.75,0],[0,0.5,0],[0,0.25,0]];verticalLabelPosition=bottom;html=1;verticalAlign=top;aspect=fixed;align=center;pointerEvents=1;shape=mxgraph.cisco19.rect;prIcon=load_balancer;fillColor=#FAFAFA;strokeColor=#005073;" parent="1" vertex="1">
          <mxGeometry x="150" y="430" width="64" height="50" as="geometry" />
        </mxCell>
        <mxCell id="eXpazlzF4Z40hMdaCm9o-15" style="edgeStyle=orthogonalEdgeStyle;rounded=0;orthogonalLoop=1;jettySize=auto;html=1;" parent="1" source="eXpazlzF4Z40hMdaCm9o-2" target="eXpazlzF4Z40hMdaCm9o-6" edge="1">
          <mxGeometry relative="1" as="geometry" />
        </mxCell>
        <mxCell id="eXpazlzF4Z40hMdaCm9o-2" value="" style="sketch=0;pointerEvents=1;shadow=0;dashed=0;html=1;strokeColor=none;fillColor=#505050;labelPosition=center;verticalLabelPosition=bottom;verticalAlign=top;outlineConnect=0;align=center;shape=mxgraph.office.servers.web_server;" parent="1" vertex="1">
          <mxGeometry x="616" y="620" width="48" height="57" as="geometry" />
        </mxCell>
        <mxCell id="eXpazlzF4Z40hMdaCm9o-14" style="edgeStyle=orthogonalEdgeStyle;rounded=0;orthogonalLoop=1;jettySize=auto;html=1;" parent="1" source="eXpazlzF4Z40hMdaCm9o-3" target="eXpazlzF4Z40hMdaCm9o-7" edge="1">
          <mxGeometry relative="1" as="geometry" />
        </mxCell>
        <mxCell id="eXpazlzF4Z40hMdaCm9o-3" value="" style="sketch=0;pointerEvents=1;shadow=0;dashed=0;html=1;strokeColor=none;fillColor=#505050;labelPosition=center;verticalLabelPosition=bottom;verticalAlign=top;outlineConnect=0;align=center;shape=mxgraph.office.servers.web_server;" parent="1" vertex="1">
          <mxGeometry x="616" y="230" width="48" height="57" as="geometry" />
        </mxCell>
        <mxCell id="eXpazlzF4Z40hMdaCm9o-10" style="edgeStyle=orthogonalEdgeStyle;rounded=0;orthogonalLoop=1;jettySize=auto;html=1;" parent="1" source="eXpazlzF4Z40hMdaCm9o-4" target="eXpazlzF4Z40hMdaCm9o-7" edge="1">
          <mxGeometry relative="1" as="geometry" />
        </mxCell>
        <mxCell id="eXpazlzF4Z40hMdaCm9o-12" style="rounded=0;orthogonalLoop=1;jettySize=auto;html=1;dashed=1;dashPattern=12 12;" parent="1" source="eXpazlzF4Z40hMdaCm9o-4" target="eXpazlzF4Z40hMdaCm9o-6" edge="1">
          <mxGeometry relative="1" as="geometry" />
        </mxCell>
        <mxCell id="eXpazlzF4Z40hMdaCm9o-19" value="" style="edgeStyle=orthogonalEdgeStyle;rounded=0;orthogonalLoop=1;jettySize=auto;html=1;" parent="1" source="eXpazlzF4Z40hMdaCm9o-4" target="eXpazlzF4Z40hMdaCm9o-5" edge="1">
          <mxGeometry relative="1" as="geometry" />
        </mxCell>
        <mxCell id="eXpazlzF4Z40hMdaCm9o-4" value="" style="sketch=0;pointerEvents=1;shadow=0;dashed=0;html=1;strokeColor=none;fillColor=#505050;labelPosition=center;verticalLabelPosition=bottom;verticalAlign=top;outlineConnect=0;align=center;shape=mxgraph.office.servers.web_server;" parent="1" vertex="1">
          <mxGeometry x="350" y="360" width="48" height="57" as="geometry" />
        </mxCell>
        <mxCell id="eXpazlzF4Z40hMdaCm9o-11" style="edgeStyle=orthogonalEdgeStyle;rounded=0;orthogonalLoop=1;jettySize=auto;html=1;dashed=1;dashPattern=12 12;" parent="1" source="eXpazlzF4Z40hMdaCm9o-5" target="eXpazlzF4Z40hMdaCm9o-6" edge="1">
          <mxGeometry relative="1" as="geometry" />
        </mxCell>
        <mxCell id="eXpazlzF4Z40hMdaCm9o-13" style="rounded=0;orthogonalLoop=1;jettySize=auto;html=1;" parent="1" source="eXpazlzF4Z40hMdaCm9o-5" target="eXpazlzF4Z40hMdaCm9o-7" edge="1">
          <mxGeometry relative="1" as="geometry" />
        </mxCell>
        <mxCell id="eXpazlzF4Z40hMdaCm9o-5" value="" style="sketch=0;pointerEvents=1;shadow=0;dashed=0;html=1;strokeColor=none;fillColor=#505050;labelPosition=center;verticalLabelPosition=bottom;verticalAlign=top;outlineConnect=0;align=center;shape=mxgraph.office.servers.web_server;" parent="1" vertex="1">
          <mxGeometry x="350" y="493" width="48" height="57" as="geometry" />
        </mxCell>
        <mxCell id="eXpazlzF4Z40hMdaCm9o-6" value="" style="sketch=0;outlineConnect=0;fontColor=#232F3E;gradientColor=none;strokeColor=#232F3E;fillColor=#ffffff;dashed=0;verticalLabelPosition=bottom;verticalAlign=top;align=center;html=1;fontSize=12;fontStyle=0;aspect=fixed;shape=mxgraph.aws4.resourceIcon;resIcon=mxgraph.aws4.traditional_server;" parent="1" vertex="1">
          <mxGeometry x="610" y="491.5" width="60" height="60" as="geometry" />
        </mxCell>
        <mxCell id="eXpazlzF4Z40hMdaCm9o-7" value="" style="sketch=0;outlineConnect=0;fontColor=#232F3E;gradientColor=none;strokeColor=#232F3E;fillColor=#ffffff;dashed=0;verticalLabelPosition=bottom;verticalAlign=top;align=center;html=1;fontSize=12;fontStyle=0;aspect=fixed;shape=mxgraph.aws4.resourceIcon;resIcon=mxgraph.aws4.traditional_server;" parent="1" vertex="1">
          <mxGeometry x="610" y="358.5" width="60" height="60" as="geometry" />
        </mxCell>
        <mxCell id="eXpazlzF4Z40hMdaCm9o-17" style="rounded=0;orthogonalLoop=1;jettySize=auto;html=1;" parent="1" source="eXpazlzF4Z40hMdaCm9o-16" target="eXpazlzF4Z40hMdaCm9o-7" edge="1">
          <mxGeometry relative="1" as="geometry" />
        </mxCell>
        <mxCell id="eXpazlzF4Z40hMdaCm9o-18" style="rounded=0;orthogonalLoop=1;jettySize=auto;html=1;" parent="1" source="eXpazlzF4Z40hMdaCm9o-16" target="eXpazlzF4Z40hMdaCm9o-6" edge="1">
          <mxGeometry relative="1" as="geometry" />
        </mxCell>
        <mxCell id="eXpazlzF4Z40hMdaCm9o-16" value="" style="sketch=0;pointerEvents=1;shadow=0;dashed=0;html=1;strokeColor=none;fillColor=#505050;labelPosition=center;verticalLabelPosition=bottom;verticalAlign=top;outlineConnect=0;align=center;shape=mxgraph.office.servers.web_server;" parent="1" vertex="1">
          <mxGeometry x="740" y="426.5" width="48" height="57" as="geometry" />
        </mxCell>
        <mxCell id="eXpazlzF4Z40hMdaCm9o-20" value="WG-A&lt;br style=&quot;border-color: var(--border-color);&quot;&gt;&lt;span style=&quot;&quot;&gt;&amp;nbsp;Mirror-aware&lt;/span&gt;" style="text;html=1;strokeColor=none;fillColor=none;align=center;verticalAlign=middle;whiteSpace=wrap;rounded=0;" parent="1" vertex="1">
          <mxGeometry x="310" y="560" width="108" height="30" as="geometry" />
        </mxCell>
        <mxCell id="eXpazlzF4Z40hMdaCm9o-21" value="WG-A&lt;br style=&quot;border-color: var(--border-color);&quot;&gt;&lt;span style=&quot;&quot;&gt;&amp;nbsp;Mirror-aware&lt;/span&gt;" style="text;html=1;strokeColor=none;fillColor=none;align=center;verticalAlign=middle;whiteSpace=wrap;rounded=0;" parent="1" vertex="1">
          <mxGeometry x="310" y="320" width="108" height="30" as="geometry" />
        </mxCell>
        <mxCell id="eXpazlzF4Z40hMdaCm9o-23" value="HC-A" style="text;html=1;strokeColor=none;fillColor=none;align=center;verticalAlign=middle;whiteSpace=wrap;rounded=0;" parent="1" vertex="1">
          <mxGeometry x="520" y="320" width="108" height="30" as="geometry" />
        </mxCell>
        <mxCell id="eXpazlzF4Z40hMdaCm9o-24" value="HC-B" style="text;html=1;strokeColor=none;fillColor=none;align=center;verticalAlign=middle;whiteSpace=wrap;rounded=0;" parent="1" vertex="1">
          <mxGeometry x="520" y="550" width="108" height="30" as="geometry" />
        </mxCell>
        <mxCell id="eXpazlzF4Z40hMdaCm9o-25" value="WG-A" style="text;html=1;strokeColor=none;fillColor=none;align=center;verticalAlign=middle;whiteSpace=wrap;rounded=0;" parent="1" vertex="1">
          <mxGeometry x="580" y="200" width="108" height="30" as="geometry" />
        </mxCell>
        <mxCell id="eXpazlzF4Z40hMdaCm9o-26" value="WG-B" style="text;html=1;strokeColor=none;fillColor=none;align=center;verticalAlign=middle;whiteSpace=wrap;rounded=0;" parent="1" vertex="1">
          <mxGeometry x="580" y="680" width="108" height="30" as="geometry" />
        </mxCell>
        <mxCell id="eXpazlzF4Z40hMdaCm9o-27" value="&lt;font color=&quot;#808080&quot;&gt;arbiter&lt;/font&gt;" style="text;html=1;strokeColor=none;fillColor=none;align=center;verticalAlign=middle;whiteSpace=wrap;rounded=0;" parent="1" vertex="1">
          <mxGeometry x="700" y="483.5" width="108" height="30" as="geometry" />
        </mxCell>
        <mxCell id="iHBgydOQK1UvzFJl12yK-1" value="primary" style="text;html=1;strokeColor=none;fillColor=none;align=center;verticalAlign=middle;whiteSpace=wrap;rounded=0;" parent="1" vertex="1">
          <mxGeometry x="460" y="360" width="60" height="30" as="geometry" />
        </mxCell>
        <mxCell id="iHBgydOQK1UvzFJl12yK-2" value="backup" style="text;html=1;strokeColor=none;fillColor=none;align=center;verticalAlign=middle;whiteSpace=wrap;rounded=0;" parent="1" vertex="1">
          <mxGeometry x="460" y="521.5" width="60" height="30" as="geometry" />
        </mxCell>
        <mxCell id="77gyKvggz7UppsIgQ_k6-1" value="webgateway-0" style="text;html=1;strokeColor=none;fillColor=none;align=center;verticalAlign=middle;whiteSpace=wrap;rounded=0;fontColor=#808080;" vertex="1" parent="1">
          <mxGeometry x="240" y="360" width="108" height="30" as="geometry" />
        </mxCell>
        <mxCell id="77gyKvggz7UppsIgQ_k6-2" value="webgateway-1" style="text;html=1;strokeColor=none;fillColor=none;align=center;verticalAlign=middle;whiteSpace=wrap;rounded=0;fontColor=#808080;" vertex="1" parent="1">
          <mxGeometry x="240" y="520" width="108" height="30" as="geometry" />
        </mxCell>
        <mxCell id="77gyKvggz7UppsIgQ_k6-3" value="healthconnect-0" style="text;html=1;strokeColor=none;fillColor=none;align=center;verticalAlign=middle;whiteSpace=wrap;rounded=0;fontColor=#808080;" vertex="1" parent="1">
          <mxGeometry x="664" y="360" width="126" height="30" as="geometry" />
        </mxCell>
        <mxCell id="77gyKvggz7UppsIgQ_k6-4" value="healthconnect-1" style="text;html=1;strokeColor=none;fillColor=none;align=center;verticalAlign=middle;whiteSpace=wrap;rounded=0;fontColor=#808080;" vertex="1" parent="1">
          <mxGeometry x="670" y="520" width="126" height="30" as="geometry" />
        </mxCell>
        <mxCell id="77gyKvggz7UppsIgQ_k6-6" value="webgateway-1-dedicated" style="text;html=1;strokeColor=none;fillColor=none;align=center;verticalAlign=middle;whiteSpace=wrap;rounded=0;fontColor=#808080;" vertex="1" parent="1">
          <mxGeometry x="450" y="647" width="160" height="30" as="geometry" />
        </mxCell>
        <mxCell id="77gyKvggz7UppsIgQ_k6-7" value="webgateway-0-dedicated" style="text;html=1;strokeColor=none;fillColor=none;align=center;verticalAlign=middle;whiteSpace=wrap;rounded=0;fontColor=#808080;" vertex="1" parent="1">
          <mxGeometry x="450" y="257" width="160" height="30" as="geometry" />
        </mxCell>
        <mxCell id="77gyKvggz7UppsIgQ_k6-8" value="loadbalancer" style="text;html=1;strokeColor=none;fillColor=none;align=center;verticalAlign=middle;whiteSpace=wrap;rounded=0;fontColor=#808080;" vertex="1" parent="1">
          <mxGeometry x="30" y="440" width="108" height="30" as="geometry" />
        </mxCell>
      </root>
    </mxGraphModel>
  </diagram>
</mxfile>
